<?xml version="1.0" encoding="UTF-8" ?>
<!DOCTYPE svg PUBLIC "-//W3C//DTD SVG 1.1//EN" "http://www.w3.org/Graphics/SVG/1.1/DTD/svg11.dtd">
<svg width="1681pt" height="309pt" viewBox="0 0 1681 309" version="1.1" xmlns="http://www.w3.org/2000/svg">
<path fill="#fdfefe" d=" M 0.00 0.00 L 1681.00 0.00 L 1681.00 309.00 L 0.00 309.00 L 0.00 0.00 Z" />
<path fill="#384751" d=" M 1431.93 1.09 C 1435.92 0.93 1439.92 0.18 1443.93 0.68 C 1449.27 1.48 1454.63 0.36 1459.99 0.46 C 1465.64 -0.05 1471.26 1.09 1476.91 0.73 C 1483.94 0.12 1490.97 1.68 1498.00 0.68 C 1508.33 0.54 1518.67 0.37 1529.00 1.06 C 1529.02 42.16 1528.97 83.26 1529.03 124.35 C 1539.57 112.92 1552.82 103.99 1567.27 98.26 C 1580.47 92.99 1595.10 92.31 1609.00 94.76 C 1619.45 96.43 1629.80 100.31 1637.95 107.21 C 1649.39 116.40 1655.62 130.56 1658.53 144.64 C 1661.84 160.19 1661.97 176.19 1661.89 192.02 C 1661.89 210.68 1661.88 229.34 1661.90 248.00 C 1667.93 248.00 1673.96 248.00 1680.00 248.00 C 1679.98 265.67 1680.01 283.33 1679.99 301.00 C 1645.89 301.00 1611.79 301.00 1577.69 301.00 C 1577.52 271.66 1577.67 242.33 1577.62 212.99 C 1577.50 203.67 1577.95 194.33 1577.20 185.03 C 1577.25 176.22 1575.63 166.37 1568.91 160.06 C 1563.34 154.77 1554.87 154.04 1547.70 155.61 C 1540.12 157.53 1534.62 164.00 1532.09 171.15 C 1529.80 178.18 1528.66 185.60 1529.00 192.99 C 1529.01 211.33 1529.00 229.66 1529.00 248.00 C 1538.62 248.02 1548.25 247.95 1557.88 248.05 C 1557.86 265.67 1557.97 283.29 1557.82 300.90 C 1515.87 301.13 1473.91 300.94 1431.95 301.00 C 1431.90 283.33 1431.93 265.67 1431.94 248.00 C 1437.51 247.96 1443.10 248.08 1448.68 247.91 C 1448.58 182.97 1448.56 118.04 1448.69 53.10 C 1443.11 52.90 1437.53 53.04 1431.95 53.00 C 1431.89 35.70 1431.95 18.39 1431.93 1.09 Z" />
<path fill="#02c0ff" d=" M 329.40 16.56 C 348.51 14.65 368.27 16.09 386.43 22.63 C 404.24 28.87 419.90 40.74 430.98 55.98 C 445.95 76.52 453.35 101.61 456.53 126.57 C 460.36 156.26 459.57 186.65 453.07 215.92 C 447.93 236.62 439.39 257.06 424.84 272.97 C 410.53 289.44 390.13 300.05 368.74 303.71 C 350.99 306.76 332.58 306.29 315.07 302.02 C 297.10 297.47 280.24 288.05 267.58 274.43 C 257.55 264.19 250.04 251.66 244.54 238.48 C 232.99 210.55 230.24 179.87 230.99 149.92 C 232.62 114.87 242.34 78.66 265.70 51.65 C 281.63 32.57 304.82 19.96 329.40 16.56 Z" />
<path fill="#02c0ff" d=" M 569.42 16.56 C 594.86 14.00 621.82 17.47 643.96 30.97 C 659.56 40.47 672.00 54.72 680.19 70.97 C 693.39 96.25 697.57 125.11 698.71 153.28 C 699.39 173.96 697.65 194.75 693.28 214.98 C 688.54 234.65 680.73 254.00 667.71 269.70 C 657.36 282.39 643.72 292.46 628.37 298.24 C 616.70 302.88 604.18 304.96 591.69 305.54 C 569.70 306.48 547.03 302.33 528.01 290.86 C 511.56 281.08 498.46 266.23 489.62 249.35 C 476.57 224.39 471.84 195.93 470.99 168.04 C 469.96 137.38 474.52 105.97 488.17 78.25 C 497.27 59.83 510.65 43.24 527.98 31.97 C 540.42 23.85 554.74 18.71 569.42 16.56 Z" />
<path fill="#02c0ff" d=" M 39.16 20.99 C 92.11 20.97 145.05 20.98 198.00 20.99 C 197.98 40.99 197.98 61.00 198.00 81.00 C 162.07 81.03 126.14 80.95 90.22 81.04 C 88.40 93.72 85.61 106.24 83.87 118.93 C 99.33 110.26 117.69 109.36 135.01 110.03 C 152.72 111.73 170.35 117.54 184.48 128.59 C 198.23 138.54 208.38 152.99 214.16 168.87 C 221.35 190.17 222.22 213.81 215.30 235.29 C 209.10 254.47 196.03 271.10 179.48 282.47 C 158.68 297.21 133.26 304.26 108.05 305.98 C 74.96 307.70 41.74 295.69 16.29 274.72 C 10.59 269.45 4.68 264.12 0.77 257.33 C 15.25 242.12 30.11 227.26 44.42 211.88 C 55.68 223.22 68.23 234.20 83.74 239.13 C 96.29 243.22 110.31 242.69 122.36 237.22 C 130.75 233.16 137.92 226.22 141.43 217.50 C 145.96 206.48 145.49 193.24 139.08 183.04 C 129.79 166.90 108.65 159.31 91.06 165.07 C 81.22 167.86 73.22 174.57 66.24 181.79 C 49.11 174.15 31.95 166.58 14.85 158.87 C 22.82 112.89 31.22 66.98 39.16 20.99 Z" />
<path fill="#384751" d=" M 710.93 21.00 C 800.43 20.98 889.92 21.00 979.42 20.99 C 979.46 55.70 979.42 90.41 979.44 125.11 C 959.83 125.12 940.22 125.10 920.60 125.12 C 920.64 108.12 920.60 91.11 920.63 74.10 C 909.46 73.94 898.29 73.94 887.13 74.10 C 887.03 131.77 887.13 189.44 887.08 247.11 C 898.05 247.55 909.04 247.26 920.01 247.25 C 920.19 265.16 920.05 283.08 920.08 301.00 C 870.45 300.94 820.82 301.13 771.20 300.90 C 771.22 283.03 771.08 265.16 771.27 247.29 C 782.18 247.34 793.09 247.32 804.00 247.31 C 803.99 189.54 804.01 131.78 803.99 74.01 C 792.67 74.01 781.34 73.99 770.02 74.02 C 769.98 91.03 770.02 108.05 770.00 125.06 C 750.31 125.18 730.62 125.06 710.93 125.12 C 710.93 90.41 710.93 55.71 710.93 21.00 Z" />
<path fill="#fdfefe" d=" M 338.39 81.54 C 346.32 78.12 354.74 83.50 359.71 89.50 C 370.52 103.65 374.52 121.62 376.75 138.93 C 378.41 150.90 378.03 163.00 377.88 175.04 C 376.24 194.38 373.79 214.58 363.36 231.42 C 359.48 237.32 353.52 243.19 346.02 243.27 C 338.67 243.24 333.20 237.40 328.93 232.09 C 317.78 216.36 313.32 197.01 311.24 178.13 C 309.18 153.06 310.59 126.97 320.57 103.56 C 324.56 94.99 329.57 85.90 338.39 81.54 Z" />
<path fill="#fdfefe" d=" M 578.43 81.53 C 586.80 78.02 595.58 83.99 600.49 90.52 C 612.67 107.42 615.93 128.75 617.78 149.00 C 618.66 172.39 617.66 196.38 609.68 218.61 C 606.20 227.26 601.81 236.46 593.37 241.26 C 588.76 244.10 582.59 243.89 578.11 240.87 C 569.91 235.52 564.95 226.68 560.97 218.00 C 553.58 200.67 550.76 181.70 550.44 162.96 C 550.14 141.82 552.75 120.10 561.86 100.79 C 565.68 93.21 570.51 85.34 578.43 81.53 Z" />
<path fill="#384751" d=" M 1025.39 111.51 C 1048.96 97.00 1077.83 92.58 1105.03 96.06 C 1118.00 97.76 1130.79 101.38 1142.37 107.54 C 1162.26 117.55 1178.80 135.46 1184.71 157.20 C 1189.69 177.09 1190.85 198.33 1185.20 218.21 C 1184.76 219.25 1184.57 221.25 1183.00 220.98 C 1141.44 221.03 1099.88 220.99 1058.33 221.00 C 1060.01 229.25 1063.14 237.71 1069.60 243.44 C 1078.54 252.25 1091.98 253.79 1103.94 253.25 C 1118.19 253.03 1132.52 249.31 1144.57 241.56 C 1148.40 239.29 1151.83 236.42 1155.49 233.88 C 1166.46 247.19 1177.95 260.11 1189.32 273.10 C 1177.48 283.27 1164.19 291.84 1149.62 297.52 C 1134.80 303.33 1118.99 306.43 1103.13 307.38 C 1085.72 309.76 1067.95 307.88 1051.14 302.93 C 1036.69 298.58 1023.13 291.13 1012.00 280.90 C 993.64 264.33 983.22 240.32 980.80 215.95 C 979.46 207.69 980.07 199.27 980.02 190.94 C 981.25 176.99 984.09 162.95 990.42 150.36 C 997.96 134.37 1010.38 120.81 1025.39 111.51 Z" />
<path fill="#384751" d=" M 1272.19 101.26 C 1282.19 98.54 1292.55 96.68 1302.95 96.98 C 1322.11 96.27 1341.14 104.92 1353.81 119.21 C 1355.96 113.07 1358.24 106.98 1360.24 100.79 C 1376.15 100.48 1392.08 100.76 1408.00 100.65 C 1408.01 130.79 1408.00 160.94 1408.00 191.09 C 1388.35 191.14 1368.70 191.09 1349.05 191.12 C 1347.96 179.75 1346.63 167.71 1339.86 158.10 C 1337.30 153.91 1332.89 151.11 1328.24 149.77 C 1323.03 148.17 1317.47 149.62 1312.58 151.58 C 1305.78 154.23 1300.74 159.94 1297.03 166.04 C 1290.67 177.19 1288.37 190.30 1288.94 203.03 C 1289.01 221.01 1299.83 239.94 1317.68 245.36 C 1334.00 250.24 1352.41 246.10 1365.83 235.80 C 1370.40 232.56 1374.08 228.29 1378.11 224.44 C 1390.28 237.79 1401.68 251.84 1413.74 265.29 C 1409.14 271.19 1403.03 275.70 1397.14 280.20 C 1362.38 305.36 1315.68 313.25 1274.73 300.29 C 1255.52 294.19 1237.92 282.56 1225.74 266.41 C 1212.26 248.93 1206.11 226.77 1205.35 204.94 C 1204.47 180.50 1209.16 154.80 1223.69 134.61 C 1235.19 118.14 1252.95 106.59 1272.19 101.26 Z" />
<path fill="#fdfefe" d=" M 1071.47 155.36 C 1081.84 147.29 1097.04 147.31 1108.18 153.76 C 1116.98 159.72 1119.59 170.97 1119.25 181.00 C 1099.36 180.99 1079.47 180.98 1059.58 181.00 C 1060.06 171.40 1064.11 161.71 1071.47 155.36 Z" />
</svg>
