<?xml version="1.0" encoding="UTF-8" standalone="no"?>
<!-- Created with Inkscape (http://www.inkscape.org/) -->

<svg
   xmlns:dc="http://purl.org/dc/elements/1.1/"
   xmlns:cc="http://creativecommons.org/ns#"
   xmlns:rdf="http://www.w3.org/1999/02/22-rdf-syntax-ns#"
   xmlns:svg="http://www.w3.org/2000/svg"
   xmlns="http://www.w3.org/2000/svg"
   xmlns:sodipodi="http://sodipodi.sourceforge.net/DTD/sodipodi-0.dtd"
   xmlns:inkscape="http://www.inkscape.org/namespaces/inkscape"
   id="svg2"
   version="1.1"
   inkscape:version="0.47 r22583"
   width="230"
   height="50"
   xml:space="preserve"
   sodipodi:docname="O_Reilly__and__Associates.svg"><metadata
     id="metadata8"><rdf:RDF><cc:Work
         rdf:about=""><dc:format>image/svg+xml</dc:format><dc:type
           rdf:resource="http://purl.org/dc/dcmitype/StillImage" /></cc:Work></rdf:RDF></metadata><defs
     id="defs6"><inkscape:perspective
       sodipodi:type="inkscape:persp3d"
       inkscape:vp_x="0 : 0.5 : 1"
       inkscape:vp_y="0 : 1000 : 0"
       inkscape:vp_z="1 : 0.5 : 1"
       inkscape:persp3d-origin="0.5 : 0.33333333 : 1"
       id="perspective10" /></defs><sodipodi:namedview
     pagecolor="#ffffff"
     bordercolor="#666666"
     borderopacity="1"
     objecttolerance="10"
     gridtolerance="10"
     guidetolerance="10"
     inkscape:pageopacity="0"
     inkscape:pageshadow="2"
     inkscape:window-width="1152"
     inkscape:window-height="789"
     id="namedview4"
     showgrid="false"
     inkscape:zoom="2.6970053"
     inkscape:cx="113.20499"
     inkscape:cy="-10.746123"
     inkscape:window-x="0"
     inkscape:window-y="24"
     inkscape:window-maximized="1"
     inkscape:current-layer="g12"
     showguides="true"
     inkscape:guide-bbox="true" /><g
     id="g12"
     inkscape:groupmode="layer"
     inkscape:label="ink_ext_XXXXXX"
     transform="matrix(1.25,0,0,-1.25,-262.205,555.79875)"><path
       id="path18"
       style="fill:#231f20;fill-opacity:1;fill-rule:evenodd;stroke:none"
       d="m 213.02688,424.20788 c 0,-8.641 6.541,-16.306 16.94,-16.306 10.74,0 17.184,7.714 17.184,16.306 0,8.836 -6.59,16.305 -17.086,16.305 -10.301,0 -17.038,-7.518 -17.038,-16.305 z m 4.686,0 c 0,6.981 5.273,12.107 12.352,12.107 7.127,0 12.4,-5.126 12.4,-12.107 0,-6.932 -5.273,-12.107 -12.4,-12.107 -7.079,0 -12.352,5.175 -12.352,12.107" /><path
       id="path20"
       style="fill:#ce0f3e;fill-opacity:1;fill-rule:evenodd;stroke:none"
       d="m 250.51988,427.47888 c 4.296,0.683 5.614,2.929 5.614,7.079 l 0,5.516 -5.614,0 0,-6.054 2.978,0 c 0.146,-2.831 -0.977,-4.149 -2.978,-4.393 l 0,-2.148" /><path
       id="path22"
       style="fill:#231f20;fill-opacity:1;fill-rule:evenodd;stroke:none"
       d="m 260.91788,440.07388 0,-31.732 4.589,0 0,13.767 1.904,0 c 2.295,0 4.198,-0.733 8.397,-7.275 l 4.198,-6.492 5.468,0 c -2.197,3.027 -2.978,4.101 -4.345,6.249 -2.441,3.954 -4.198,6.932 -7.078,8.836 3.417,1.318 5.321,4.1 5.321,7.762 0,5.517 -4.004,8.885 -10.448,8.885 l -8.006,0 z m 4.589,-3.906 2.929,0 c 4.394,0 6.2,-1.806 6.2,-4.784 0.049,-2.685 -1.318,-5.175 -6.2,-5.175 l -2.929,0 0,9.959" /><path
       id="path24"
       style="fill:#231f20;fill-opacity:1;fill-rule:evenodd;stroke:none"
       d="m 305.63588,440.07388 -18.014,0 0,-31.732 18.454,0 0,4.101 -13.914,0 0,9.861 13.035,0 0,4.101 -13.035,0 0,9.568 13.474,0 0,4.101" /><path
       id="path26"
       style="fill:#231f20;fill-opacity:1;fill-rule:evenodd;stroke:none"
       d="m 310.41988,408.34188 4.54023,0 0,31.732 -4.54023,0 0,-31.732 z" /><path
       id="path28"
       style="fill:#231f20;fill-opacity:1;fill-rule:evenodd;stroke:none"
       d="m 324.18788,440.07388 -4.541,0 0,-31.732 18.893,0 0,4.101 -14.352,0 0,27.631" /><path
       id="path30"
       style="fill:#231f20;fill-opacity:1;fill-rule:evenodd;stroke:none"
       d="m 346.10688,440.07388 -4.54,0 0,-31.732 18.893,0 0,4.101 -14.353,0 0,27.631" /><path
       id="path32"
       style="fill:#231f20;fill-opacity:1;fill-rule:evenodd;stroke:none"
       d="m 369.29588,429.33388 -8.494,10.984 -5.517,0 11.814,-14.987 0,-16.794 4.541,0 0,16.745 11.765,15.036 -5.468,0 -8.641,-10.984" /><path
       id="path34"
       style="fill:#231f20;fill-opacity:1;fill-rule:evenodd;stroke:none"
       d="m 388.90914,440.21988 c -1.562,0 -2.831,-1.269 -2.831,-2.831 0,-1.562 1.269,-2.831 2.831,-2.831 1.563,0 2.832,1.269 2.832,2.831 0,1.562 -1.269,2.831 -2.832,2.831 z m 0,-0.537 c 1.221,0 2.295,-1.025 2.295,-2.294 0,-1.269 -1.025,-2.295 -2.295,-2.295 -1.269,0 -2.294,1.026 -2.294,2.295 0,1.269 1.025,2.294 2.294,2.294 z m -1.318,-0.781 0,-3.027 0.781,0 0,1.172 c 0.098,0.049 0.196,0 0.245,-0.048 0.146,-0.049 0.39,-0.44 0.732,-1.124 l 0.878,0 -0.293,0.489 c -0.195,0.39 -0.341,0.635 -0.683,0.83 0.293,0.048 0.83,0.244 0.83,0.83 0,0.634 -0.488,0.878 -1.123,0.878 l -1.367,0 z m 0.781,-0.537 0.342,0 c 0.342,0 0.586,-0.097 0.586,-0.39 0,-0.293 -0.244,-0.342 -0.586,-0.342 l -0.342,0 0,0.732" /></g></svg>